<svg id="Capa_1" enable-background="new 0 0 512.004 512.004" height="512" viewBox="0 0 512.004 512.004" width="512" xmlns="http://www.w3.org/2000/svg"><g><path d="m286.537 119.938c-29.917 0-54.17-26.191-54.17-58.499 0-22.381 11.638-41.826 28.735-51.663 11.313-6.509 25.435 1.805 25.435 14.857z" fill="#eb9fa9"/><path d="m396.863 119.938c29.917 0 54.17-26.191 54.17-58.499 0-22.381-11.638-41.826-28.735-51.663-11.313-6.509-25.435 1.805-25.435 14.857z" fill="#eb9fa9"/><path d="m155.728 503.1c-15.146-4.908-23.446-21.165-18.538-36.311 13.848-42.738 22.631-124.592 22.631-147.703 0-15.921 12.907-28.828 28.828-28.828s28.828 12.907 28.828 28.828c0 25.239-8.914 114.479-25.438 165.475-4.915 15.169-21.185 23.44-36.311 18.539z" fill="#deb597"/><path d="m322.298 504.379c-15.853-1.483-27.502-15.535-26.02-31.387 4.717-50.442-7.749-115.459-22.351-144.535-7.145-14.228-1.403-31.554 12.825-38.7 14.227-7.144 31.554-1.404 38.699 12.825 21.116 42.048 33.518 119.258 28.233 175.777-1.472 15.752-15.428 27.506-31.386 26.02z" fill="#deb597"/><path d="m449.769 218.976c-2.63-2.123-2.493-6.207.239-8.198 26.598-19.38 27.523-59.656 1.057-80.092-2.024-1.563-2.626-4.338-1.434-6.6 3.674-6.974 5.76-14.913 5.76-23.344 0-36.514-37.333-59.861-69.484-46.368-2.617 1.098-5.624.484-7.564-1.588-9.159-9.785-22.184-15.904-36.644-15.904s-27.485 6.12-36.644 15.904c-1.94 2.072-4.946 2.686-7.564 1.588-32.132-13.482-69.484 9.836-69.484 46.368 0 8.275 2.01 16.077 5.559 22.957 1.281 2.484.653 5.506-1.543 7.235-20.168 15.878-24.783 44.201-11.766 65.497 2.047 3.349.231 7.666-3.601 8.513-10.491 2.32-20.185 7.877-27.581 16.183-1.83 2.055-4.828 2.525-7.189 1.112-7.794-4.666-16.91-7.352-26.654-7.352-13.076 0-24.895 4.8-33.953 12.635-1.677 1.451-4.055 1.752-6.059.803-5.215-2.47-11.025-3.864-17.155-3.874-46.692-.075-65.175 52.161-52.837 103.546 3.445 14.349 19.408 21.697 32.71 15.308 5.364-2.577 10.951-5.579 16.472-9.031 2.483 5.366 5.923 10.395 10.324 14.823-2.679 24.004 10.525 45.568 30.645 55.159 2.714 1.294 4.295 4.186 3.816 7.154-.408 2.527-.828 5.052-1.262 7.569-3.788 21.966 11.347 35.075 33.313 38.863 21.924 3.785 42.438-3.143 46.232-25.145 1.039-6.024 2.018-12.12 2.932-18.199.411-2.734 3.23-4.36 5.817-3.385 16.076 6.065 34.351 5.009 49.881-3.564 2.614-1.443 5.878.228 6.291 3.186.828 5.921 1.534 12.039 2.085 18.306 1.961 22.268 21.863 31.728 44.005 29.781 22.204-1.955 38.358-14.657 36.403-36.862-.416-4.724-.909-9.432-1.473-14.111-.389-3.232 1.093-6.372 3.752-8.25 6.475-4.572 11.908-10.522 15.867-17.428 1.077-1.878 3.028-3.051 5.192-3.123 34.412-1.136 57.57-34.893 48.004-66.751-1.09-3.631.588-7.46 3.995-9.122 16.71-8.149 28.226-25.294 28.226-45.136.004-15.785-7.289-29.863-18.686-39.063z" fill="#f9efcd"/><path d="m242.145 352.149c1.635-3.788-.029-8.156-3.778-9.882-19.726-9.081-27.531-40.022-16.852-58.777 1.97-3.459.764-7.831-2.588-9.979-17.187-11.013-20.253-49.096-4.622-67.982-9.583 2.593-18.389 7.918-25.228 15.599-1.83 2.055-4.828 2.525-7.189 1.112-7.795-4.666-16.909-7.352-26.654-7.352-13.076 0-24.895 4.8-33.953 12.635-1.677 1.451-4.055 1.752-6.059.803-5.215-2.47-11.025-3.864-17.155-3.874-46.692-.075-65.175 52.161-52.837 103.546 3.445 14.349 19.408 21.697 32.71 15.308 5.364-2.577 10.951-5.579 16.472-9.031 2.483 5.366 5.923 10.395 10.324 14.823-2.679 24.004 10.524 45.568 30.645 55.159 2.714 1.294 4.295 4.186 3.816 7.154-.408 2.527-.829 5.052-1.262 7.569-3.788 21.966 11.347 35.075 33.313 38.863 21.924 3.785 42.438-3.143 46.232-25.145 1.039-6.024 2.018-12.12 2.932-18.199.411-2.734 3.23-4.36 5.817-3.384 14.099 5.318 29.888 5.158 44.034-.744-22.334-4.119-37.549-36.375-28.118-58.222z" fill="#f8debb"/><g><g fill="#eda1ab"><ellipse cx="262.143" cy="173.056" rx="29.355" ry="23.377"/><ellipse cx="421.257" cy="173.056" rx="29.355" ry="23.377"/></g></g><path d="m456.741 215.061c27.973-22.604 28.484-65.979.368-89.146 7.837-16.145 7.575-34.987.021-50.506 5.82-28.844-6.846-58.183-31.093-72.134-16.293-9.374-36.675 2.499-36.675 21.358v20.609c-1.993.571-3.968 1.235-5.91 2.03-22.71-23.814-60.765-23.847-83.505 0-1.942-.796-3.917-1.459-5.91-2.03v-20.609c0-18.872-20.394-30.725-36.675-21.358-24.266 13.962-36.909 43.31-31.093 72.134-7.536 15.484-7.835 34.331.025 50.513-21.379 17.679-27.078 48.119-13.677 72.287-10.823 2.865-20.49 8.647-28.156 16.851-21.336-12.055-48.108-9.783-67.131 5.982-12.802-5.679-27.933-5.091-40.516-.472-3.889 1.427-5.884 5.737-4.456 9.625 1.427 3.888 5.737 5.883 9.625 4.456 5.096-1.871 10.49-2.699 16.073-2.699 4.86.008 9.556 1.068 13.956 3.152 4.699 2.227 10.264 1.477 14.176-1.908 14.52-12.56 35.489-14.314 51.848-4.522 5.431 3.252 12.43 2.174 16.643-2.559 6.258-7.029 14.418-11.818 23.598-13.848 8.849-1.957 13.107-12.017 8.381-19.748-11.249-18.403-6.947-42.345 10.006-55.693 4.992-3.931 6.493-10.898 3.568-16.566-3.135-6.077-4.724-12.644-4.724-19.518 0-31.326 32.003-50.814 59.083-39.452 5.487 2.302 11.893.944 15.941-3.379 16.846-17.997 45.374-18.121 62.337 0 4.046 4.323 10.452 5.682 15.941 3.378 13.085-5.491 28.078-3.997 40.107 4.001 19.333 12.853 23.671 37.094 14.079 55.299-2.896 5.495-1.43 12.238 3.486 16.033 22.407 17.302 21.805 51.557-.891 68.094-6.734 4.908-6.991 14.881-.533 20.095 24.166 19.51 20.25 57.796-8.112 71.626-6.724 3.279-10.042 10.857-7.891 18.02 3.425 11.407 2.095 23.517-3.747 34.098-2.002 3.626-.685 8.188 2.941 10.19 3.627 2.001 8.189.686 10.191-2.941 7.807-14.141 9.576-30.357 4.981-45.661-.033-.109-.005-.172.1-.223 37.142-18.113 43.533-67.753 13.22-94.859zm-177.704-172.026c-14.055-.17-27.917 4.811-39.022 14.476 1.22-17.426 10.492-32.986 24.827-41.234 6.302-3.625 14.195 1.054 14.195 8.356zm125.326-.001v-18.401c0-7.282 7.874-11.993 14.195-8.356 14.335 8.248 23.606 23.808 24.827 41.233-11.131-9.687-24.994-14.647-39.022-14.476zm7.286 107.519v-12c0-4.142-3.358-7.5-7.5-7.5s-7.5 3.358-7.5 7.5v12c0 4.142 3.358 7.5 7.5 7.5s7.5-3.358 7.5-7.5zm-8.646 217.875c-4.739 1.902-9.792 2.955-15.017 3.127-4.789.158-9.07 2.733-11.452 6.889-3.382 5.899-8.114 11.097-13.687 15.031-4.953 3.497-7.585 9.35-6.871 15.273.559 4.645 1.047 9.312 1.448 13.872 2.118 24.057-22.113 28.074-29.589 28.732-24.765 2.182-34.773-10.436-35.877-22.967-.546-6.207-1.263-12.494-2.129-18.686-1.14-8.15-10.126-12.701-17.344-8.713-13.379 7.386-29.274 8.519-43.609 3.113-7.06-2.665-14.76 1.835-15.881 9.286-.929 6.172-1.906 12.242-2.907 18.04-3.044 17.659-19.926 22.075-37.566 19.028-27.38-4.722-28.792-20.946-27.196-30.197.438-2.543.863-5.095 1.276-7.649.998-6.183-2.289-12.4-7.993-15.119-18.017-8.588-28.634-27.7-26.418-47.557.252-2.258-.533-4.508-2.134-6.12-16.604-16.701-17.82-44.18-.523-62.182 2.87-2.987 2.775-7.734-.212-10.604-2.988-2.87-7.734-2.774-10.604.212-15.519 16.151-20.549 39.024-13.622 59.85-3.337 1.901-6.806 3.734-10.401 5.46-9.049 4.346-19.854-.653-22.169-10.298-6.405-26.674-3.958-53.403 6.547-71.502 2.079-3.583.86-8.172-2.722-10.252-3.581-2.079-8.172-.862-10.251 2.722-12.392 21.351-15.442 52.204-8.16 82.534 4.545 18.926 25.576 28.808 43.25 20.317 3.571-1.715 7.048-3.523 10.4-5.404 1.615 2.505 3.418 4.886 5.403 7.132-1.342 24.749 12.266 48.09 34.707 59.012-.374 2.303-.758 4.604-1.154 6.898-1.777 10.305-.101 19.655 4.846 27.407-1.75 7.326-3.54 13.828-5.335 19.366-6.174 19.056 4.306 39.583 23.362 45.757 18.98 6.148 39.558-4.231 45.757-23.362 2.469-7.62 4.877-16.415 7.173-26.172 10.064-5.521 16.452-14.718 18.524-26.729.812-4.713 1.611-9.601 2.38-14.576 15.979 5.003 33.178 3.87 48.316-3.165.569 4.486 1.054 8.999 1.448 13.469.941 10.68 5.475 19.498 12.701 25.833-.118 5.874-.414 11.508-.905 16.761-1.865 19.944 12.845 37.688 32.792 39.553 19.983 1.856 37.688-12.89 39.549-32.79.787-8.417 1.199-17.502 1.233-27.045 7.423-7.816 11.067-18.377 9.981-30.709-.415-4.719-.92-9.546-1.498-14.35-.054-.443.189-.913.632-1.226 7.15-5.049 13.254-11.68 17.689-19.208 6.728-.3 13.251-1.702 19.402-4.171 3.844-1.543 5.709-5.91 4.165-9.754-1.544-3.846-5.913-5.711-9.755-4.167zm-218.099 113.822c-3.625 11.188-15.677 17.341-26.864 13.716-11.188-3.625-17.341-15.677-13.716-26.864 1.173-3.618 2.338-7.613 3.489-11.931 11.857 7.444 28.695 10.323 41.801 8.718-1.538 5.948-3.112 11.431-4.71 16.361zm161.313-4.589c-1.095 11.705-11.515 20.339-23.221 19.251-11.709-1.095-20.346-11.512-19.251-23.222.298-3.185.527-6.498.697-9.901 13.538 4.488 30.494 3.295 42.736-1.674-.188 5.397-.499 10.609-.961 15.546zm-4.517-325.262c6.587 0 11.927-4.59 11.927-9.019s-5.34-7.019-11.927-7.019-11.927 2.59-11.927 7.019 5.34 9.019 11.927 9.019zm-21.391 22.388c-3.123 2.721-3.448 7.459-.727 10.581 5.579 6.402 13.64 10.074 22.118 10.074s16.539-3.671 22.119-10.073c2.721-3.123 2.396-7.86-.727-10.582-3.124-2.721-7.86-2.396-10.582.727-2.729 3.132-6.669 4.929-10.81 4.929s-8.08-1.796-10.81-4.928c-2.721-3.123-7.459-3.449-10.581-.728zm-41.057-16.734c4.142 0 7.5-3.358 7.5-7.5v-12c0-4.142-3.358-7.5-7.5-7.5s-7.5 3.358-7.5 7.5v12c0 4.142 3.357 7.5 7.5 7.5z"/></g></svg>